<?xml version="1.0" encoding="UTF-8"?>
<svg id="Layer_1" data-name="Layer 1" xmlns="http://www.w3.org/2000/svg" viewBox="0 0 720 720">
  <defs>
    <style>
      .cls-1 {
        fill: #031313;
      }

      .cls-2 {
        fill: #3c6;
      }
    </style>
  </defs>
  <rect class="cls-2" y="0" width="720" height="720"/>
  <g>
    <g>
      <path class="cls-1" d="M221.39,415.7c-2.97,0-5.3-.85-6.99-2.54-1.69-1.7-2.54-4.03-2.54-6.99l-.11-54.98c0-2.97.86-5.31,2.59-7.04,1.73-1.73,4.08-2.59,7.04-2.59h20.87c7.91,0,14.07,2.01,18.48,6.04,4.41,4.02,6.62,9.68,6.62,16.95,0,3.81-.64,7.2-1.91,10.17-1.27,2.97-3.04,5.51-5.3,7.63,2.47,1.62,4.29,3.6,5.46,5.93s1.75,5.23,1.75,8.68c0,6.43-2.01,11.16-6.04,14.19-4.02,3.04-10.38,4.55-19.07,4.55h-20.87ZM222.13,378.2h19.38c4.94,0,8.76-1.18,11.44-3.55,2.68-2.37,4.03-5.74,4.03-10.12,0-8.4-5.16-12.61-15.47-12.61h-19.38v26.27ZM244.27,405.32c4.66,0,7.94-.65,9.85-1.96,1.91-1.31,2.86-3.55,2.86-6.73,0-1.55-.21-2.84-.64-3.87-.42-1.02-1.13-1.85-2.12-2.49-.99-.64-2.3-1.09-3.92-1.38-1.63-.28-3.64-.42-6.04-.42h-22.14v16.84h22.14Z"/>
      <path class="cls-1" d="M274.88,346.31c0-1.91.58-3.44,1.75-4.61,1.17-1.17,2.7-1.75,4.61-1.75s3.34.58,4.5,1.75c1.17,1.17,1.75,2.7,1.75,4.61s-.58,3.44-1.75,4.61c-1.17,1.17-2.67,1.75-4.5,1.75s-3.44-.58-4.61-1.75-1.75-2.7-1.75-4.61ZM276.04,362.73h10.28v52.96h-10.28v-52.96Z"/>
      <path class="cls-1" d="M322.86,416.76c-4.02,0-7.7-.66-11.02-1.96-3.32-1.31-6.16-3.14-8.53-5.51-2.37-2.37-4.2-5.21-5.51-8.53-1.31-3.32-1.96-6.99-1.96-11.02s.65-7.75,1.96-11.17c1.31-3.43,3.14-6.39,5.51-8.9,2.36-2.51,5.21-4.47,8.53-5.88,3.32-1.41,6.99-2.12,11.02-2.12s7.7.71,11.02,2.12c3.32,1.41,6.16,3.37,8.53,5.88,2.36,2.51,4.2,5.47,5.51,8.9,1.31,3.43,1.96,7.15,1.96,11.17s-.65,7.7-1.96,11.02c-1.31,3.32-3.14,6.16-5.51,8.53-2.37,2.37-5.21,4.2-8.53,5.51-3.32,1.3-6.99,1.96-11.02,1.96ZM322.86,406.16c5.01,0,9.04-1.52,12.08-4.56,3.04-3.03,4.56-7.06,4.56-12.08,0-2.47-.41-4.77-1.22-6.88-.81-2.12-1.94-3.95-3.39-5.51-1.45-1.55-3.2-2.75-5.24-3.6-2.05-.85-4.31-1.27-6.78-1.27s-4.73.42-6.78,1.27c-2.05.85-3.81,2.05-5.3,3.6-1.48,1.55-2.63,3.39-3.44,5.51-.81,2.12-1.22,4.41-1.22,6.88,0,5.02,1.54,9.04,4.61,12.08,3.07,3.04,7.11,4.56,12.13,4.56Z"/>
      <path class="cls-1" d="M367.99,415.7c-6.43,0-9.64-3.18-9.64-9.53v-54.98c0-6.42,3.21-9.64,9.64-9.64h21.5c9.75,0,16.95,3.02,21.61,9.06,4.66,6.04,6.99,15.38,6.99,28.02s-2.3,22.16-6.89,28.12c-4.59,5.97-11.83,8.95-21.71,8.95h-21.5ZM368.73,405.32h20.76c3.39,0,6.25-.46,8.58-1.38,2.33-.92,4.22-2.42,5.67-4.5,1.45-2.08,2.47-4.82,3.07-8.21.6-3.39.9-7.59.9-12.61s-.3-9.11-.9-12.5c-.6-3.39-1.63-6.14-3.07-8.26-1.45-2.12-3.34-3.64-5.67-4.56-2.33-.92-5.19-1.38-8.58-1.38h-20.76v53.39Z"/>
      <path class="cls-1" d="M468.51,408.49c-4.02,5.51-9.92,8.26-17.69,8.26s-14.04-2.45-18.38-7.36c-4.34-4.91-6.51-11.81-6.51-20.71v-25.95h10.38v26.16c0,5.51,1.25,9.76,3.76,12.76,2.51,3,6.09,4.5,10.75,4.5,4.31,0,7.45-1.38,9.43-4.13,1.98-2.75,2.97-7.13,2.97-13.13v-26.16h10.49v26.16c0,6,.99,10.38,2.97,13.13,1.98,2.75,5.08,4.13,9.32,4.13,4.66,0,8.26-1.5,10.8-4.5,2.54-3,3.81-7.26,3.81-12.76v-26.16h10.27v25.95c0,8.9-2.17,15.8-6.51,20.71-4.34,4.91-10.47,7.36-18.38,7.36s-13.59-2.75-17.48-8.26Z"/>
      <path class="cls-1" d="M518.51,389.75c0-4.03.65-7.75,1.96-11.17,1.31-3.43,3.14-6.39,5.51-8.9,2.36-2.51,5.21-4.47,8.53-5.88,3.32-1.41,6.99-2.12,11.02-2.12,3.39,0,6.53.51,9.43,1.54,2.89,1.02,5.47,2.44,7.73,4.24,2.26,1.8,4.15,3.97,5.67,6.51,1.52,2.54,2.63,5.33,3.34,8.37v3.07l-41.84,10.49c1.13,3.18,3.05,5.69,5.77,7.52,2.72,1.84,6.02,2.75,9.9,2.75,3.67,0,6.85-.92,9.53-2.75,2.68-1.84,4.62-4.27,5.83-7.31h10.8c-.71,3.04-1.82,5.83-3.34,8.37-1.52,2.54-3.41,4.71-5.67,6.51-2.26,1.8-4.84,3.22-7.73,4.24-2.9,1.02-6.04,1.54-9.43,1.54-4.02,0-7.7-.67-11.02-2.01-3.32-1.34-6.16-3.2-8.53-5.56-2.37-2.36-4.2-5.21-5.51-8.53-1.31-3.32-1.96-6.96-1.96-10.91ZM558.44,378.09c-1.48-1.84-3.34-3.27-5.56-4.29-2.22-1.02-4.68-1.54-7.36-1.54-4.38,0-8.02,1.24-10.91,3.71-2.9,2.47-4.73,5.72-5.51,9.75l29.34-7.63Z"/>
      <path class="cls-1" d="M599.43,405.21v10.49c-3.74.35-6.85.27-9.32-.26-2.47-.53-4.45-1.61-5.93-3.23-1.48-1.62-2.53-3.87-3.12-6.73-.6-2.86-.9-6.48-.9-10.86v-53.07h10.38v53.28c0,2.12.12,3.87.37,5.24.25,1.38.69,2.44,1.32,3.18s1.54,1.25,2.7,1.54c1.17.28,2.66.42,4.5.42Z"/>
      <path class="cls-1" d="M625.91,405.21v10.49c-3.74.35-6.85.27-9.32-.26-2.47-.53-4.45-1.61-5.93-3.23-1.48-1.62-2.53-3.87-3.12-6.73-.6-2.86-.9-6.48-.9-10.86v-53.07h10.38v53.28c0,2.12.12,3.87.37,5.24.25,1.38.69,2.44,1.32,3.18s1.54,1.25,2.7,1.54c1.17.28,2.66.42,4.5.42Z"/>
    </g>
    <g>
      <path class="cls-1" d="M97.74,379.89c5.88,9.04,18.08,9.88,27.34,13.53,3.05,1.09,5.91,2.49,8.59,4.1.75.39,1.71,1.1,2.5.74l.07-.05c.98-.89-.12-5.66-.21-7.84-.91-8.83-1.9-18.25-7.14-25.72-4.99-7.09-12.48-10.49-16.83-18.17-2.15-3.43-3.57-7.69-4.59-11.46-1.03-2.82-3.18.27-4.3,1.36-7.23,7.31-9.07,10.23-8.65,20.65.1,7.65-.64,16.29,3.24,22.86Z"/>
      <path class="cls-1" d="M126.95,399.4c-9.89-4.51-21.54-5.76-30.65-12.12-1.76-.96-2.15.39-2.16,1.81,0,3.86-.2,8.77.13,12.83.32,8.31,6.38,14.57,14.9,14.78h.15c7.96.12,22.46,0,28.4.04,1.02-.07,2.46.3,3.04-.72.69-1.63-.91-4.06-1.73-5.69-2.67-5.1-7.08-8.6-12.09-10.93Z"/>
      <path class="cls-1" d="M128.85,356.39c.83.73,1.63,1.48,2.4,2.27,1.63,1.59,3.11,3.88,4.51,3.95h.12c1.62-.12,2.63-2.04,3.71-3.3,1.09-1.41,2.2-2.75,3.38-4.06,7.27-8.27,20.07-16.93,16.23-29.48-1.74-4.44-4.02-5.98-7.43-9.8-3.12-3.31-6.79-7.25-9.76-10.4-2.92-3.68-4.79-2.62-7.41.42-3.4,3.61-7.87,8.4-11.62,12.38-2.81,3.25-6.16,5.66-7.72,10.12-2,6.54.68,13.98,4.56,19.19,2.49,3.39,5.9,5.94,9.04,8.69Z"/>
      <path class="cls-1" d="M157.46,385c9.24-2.81,24.35-2.56,24.8-15.12.04-9.81,1.44-20.94-5.02-29.17-1.61-2.19-3.58-4.31-5.41-6.32-2.62-2.92-4.23-4.95-5.7-.2-3.68,10.82-13.02,17.42-19.99,26.15-4.42,5.31-6.42,10.38-4.98,17.48.41,2.75.79,5.46,1.07,8.16.33,2.13.14,4.49,1.34,5.27l.08.04c1.69.29,3.36-1.81,4.96-2.55,2.69-1.63,5.78-2.85,8.84-3.75Z"/>
      <path class="cls-1" d="M182.22,388.01c-.05-3.83.43-5.95-4.03-3.52-9.59,4.37-22.01,2.79-29.68,10.78-3.69,3.74-3.63,8.63-2.31,13.67.91,3.82,2.74,7.65,7,7.6h.16c3.51.12,10.26.07,13.76.04,3.03-.04,6.49-.54,9.1-2.37,8.39-5.71,5.43-17.6,6-26.21Z"/>
    </g>
  </g>
</svg>