<?xml version="1.0" encoding="UTF-8"?>
<svg id="Layer_1" data-name="Layer 1" xmlns="http://www.w3.org/2000/svg" viewBox="0 0 720 720">
  <defs>
    <style>
      .cls-1 {
        fill: #efe;
      }

      .cls-2 {
        fill: #031313;
      }

      .cls-3 {
        fill: #3c6;
      }
    </style>
  </defs>
  <rect class="cls-2" width="720" height="720"/>
  <g>
    <g>
      <path class="cls-1" d="M162.56,514.39c-2.97,0-5.3-.85-6.99-2.54-1.69-1.7-2.54-4.03-2.54-6.99l-.11-54.98c0-2.97.86-5.31,2.59-7.04,1.73-1.73,4.08-2.59,7.04-2.59h20.87c7.91,0,14.07,2.01,18.48,6.04,4.41,4.02,6.62,9.68,6.62,16.95,0,3.81-.64,7.2-1.91,10.17-1.27,2.97-3.04,5.51-5.3,7.63,2.47,1.62,4.29,3.6,5.46,5.93s1.75,5.23,1.75,8.68c0,6.43-2.01,11.16-6.04,14.19-4.02,3.04-10.38,4.55-19.07,4.55h-20.87ZM163.3,476.89h19.38c4.94,0,8.76-1.18,11.44-3.55,2.68-2.37,4.03-5.74,4.03-10.12,0-8.4-5.16-12.61-15.47-12.61h-19.38v26.27ZM185.44,504.01c4.66,0,7.94-.65,9.85-1.96,1.91-1.31,2.86-3.55,2.86-6.73,0-1.55-.21-2.84-.64-3.87-.42-1.02-1.13-1.85-2.12-2.49-.99-.64-2.3-1.09-3.92-1.38-1.63-.28-3.64-.42-6.04-.42h-22.14v16.84h22.14Z"/>
      <path class="cls-1" d="M216.05,445.01c0-1.91.58-3.44,1.75-4.61,1.17-1.17,2.7-1.75,4.61-1.75s3.34.58,4.5,1.75c1.17,1.17,1.75,2.7,1.75,4.61s-.58,3.44-1.75,4.61c-1.17,1.17-2.67,1.75-4.5,1.75s-3.44-.58-4.61-1.75-1.75-2.7-1.75-4.61ZM217.21,461.42h10.28v52.96h-10.28v-52.96Z"/>
      <path class="cls-1" d="M264.03,515.45c-4.02,0-7.7-.66-11.02-1.96-3.32-1.31-6.16-3.14-8.53-5.51-2.37-2.37-4.2-5.21-5.51-8.53-1.31-3.32-1.96-6.99-1.96-11.02s.65-7.75,1.96-11.17c1.31-3.43,3.14-6.39,5.51-8.9,2.36-2.51,5.21-4.47,8.53-5.88,3.32-1.41,6.99-2.12,11.02-2.12s7.7.71,11.02,2.12c3.32,1.41,6.16,3.37,8.53,5.88,2.36,2.51,4.2,5.47,5.51,8.9,1.31,3.43,1.96,7.15,1.96,11.17s-.65,7.7-1.96,11.02c-1.31,3.32-3.14,6.16-5.51,8.53-2.37,2.37-5.21,4.2-8.53,5.51-3.32,1.3-6.99,1.96-11.02,1.96ZM264.03,504.85c5.01,0,9.04-1.52,12.08-4.56,3.04-3.03,4.56-7.06,4.56-12.08,0-2.47-.41-4.77-1.22-6.88-.81-2.12-1.94-3.95-3.39-5.51-1.45-1.55-3.2-2.75-5.24-3.6-2.05-.85-4.31-1.27-6.78-1.27s-4.73.42-6.78,1.27c-2.05.85-3.81,2.05-5.3,3.6-1.48,1.55-2.63,3.39-3.44,5.51-.81,2.12-1.22,4.41-1.22,6.88,0,5.02,1.54,9.04,4.61,12.08,3.07,3.04,7.11,4.56,12.13,4.56Z"/>
      <path class="cls-1" d="M309.16,514.39c-6.43,0-9.64-3.18-9.64-9.53v-54.98c0-6.42,3.21-9.64,9.64-9.64h21.5c9.75,0,16.95,3.02,21.61,9.06s6.99,15.38,6.99,28.02-2.3,22.16-6.89,28.12c-4.59,5.97-11.83,8.95-21.71,8.95h-21.5ZM309.9,504.01h20.76c3.39,0,6.25-.46,8.58-1.38,2.33-.92,4.22-2.42,5.67-4.5,1.45-2.08,2.47-4.82,3.07-8.21.6-3.39.9-7.59.9-12.61s-.3-9.11-.9-12.5c-.6-3.39-1.63-6.14-3.07-8.26-1.45-2.12-3.34-3.64-5.67-4.56-2.33-.92-5.19-1.38-8.58-1.38h-20.76v53.39Z"/>
      <path class="cls-1" d="M409.68,507.18c-4.02,5.51-9.92,8.26-17.69,8.26s-14.04-2.45-18.38-7.36c-4.34-4.91-6.51-11.81-6.51-20.71v-25.95h10.38v26.16c0,5.51,1.25,9.76,3.76,12.76,2.51,3,6.09,4.5,10.75,4.5,4.31,0,7.45-1.38,9.43-4.13,1.98-2.75,2.97-7.13,2.97-13.13v-26.16h10.49v26.16c0,6,.99,10.38,2.97,13.13,1.98,2.75,5.08,4.13,9.32,4.13,4.66,0,8.26-1.5,10.8-4.5,2.54-3,3.81-7.26,3.81-12.76v-26.16h10.27v25.95c0,8.9-2.17,15.8-6.51,20.71-4.34,4.91-10.47,7.36-18.38,7.36s-13.59-2.75-17.48-8.26Z"/>
      <path class="cls-1" d="M459.67,488.44c0-4.03.65-7.75,1.96-11.17,1.31-3.43,3.14-6.39,5.51-8.9,2.36-2.51,5.21-4.47,8.53-5.88,3.32-1.41,6.99-2.12,11.02-2.12,3.39,0,6.53.51,9.43,1.54,2.89,1.02,5.47,2.44,7.73,4.24,2.26,1.8,4.15,3.97,5.67,6.51,1.52,2.54,2.63,5.33,3.34,8.37v3.07l-41.84,10.49c1.13,3.18,3.05,5.69,5.77,7.52,2.72,1.84,6.02,2.75,9.9,2.75,3.67,0,6.85-.92,9.53-2.75,2.68-1.84,4.62-4.27,5.83-7.31h10.8c-.71,3.04-1.82,5.83-3.34,8.37-1.52,2.54-3.41,4.71-5.67,6.51-2.26,1.8-4.84,3.22-7.73,4.24-2.9,1.02-6.04,1.54-9.43,1.54-4.02,0-7.7-.67-11.02-2.01-3.32-1.34-6.16-3.2-8.53-5.56-2.37-2.36-4.2-5.21-5.51-8.53-1.31-3.32-1.96-6.96-1.96-10.91ZM499.61,476.78c-1.48-1.84-3.34-3.27-5.56-4.29-2.22-1.02-4.68-1.54-7.36-1.54-4.38,0-8.02,1.24-10.91,3.71-2.9,2.47-4.73,5.72-5.51,9.75l29.34-7.63Z"/>
      <path class="cls-1" d="M540.6,503.9v10.49c-3.74.35-6.85.27-9.32-.26-2.47-.53-4.45-1.61-5.93-3.23-1.48-1.62-2.53-3.87-3.12-6.73-.6-2.86-.9-6.48-.9-10.86v-53.07h10.38v53.28c0,2.12.12,3.87.37,5.24.25,1.38.69,2.44,1.32,3.18s1.54,1.25,2.7,1.54c1.17.28,2.66.42,4.5.42Z"/>
      <path class="cls-1" d="M567.08,503.9v10.49c-3.74.35-6.85.27-9.32-.26-2.47-.53-4.45-1.61-5.93-3.23-1.48-1.62-2.53-3.87-3.12-6.73-.6-2.86-.9-6.48-.9-10.86v-53.07h10.38v53.28c0,2.12.12,3.87.37,5.24.25,1.38.69,2.44,1.32,3.18s1.54,1.25,2.7,1.54c1.17.28,2.66.42,4.5.42Z"/>
    </g>
    <g>
      <path class="cls-3" d="M292.73,331.82c9.77,15.02,30.02,16.41,45.39,22.47,5.06,1.8,9.81,4.14,14.27,6.81,1.25.64,2.84,1.82,4.15,1.22l.11-.08c1.62-1.48-.2-9.4-.35-13.01-1.51-14.65-3.16-30.31-11.86-42.71-8.28-11.78-20.72-17.41-27.95-30.17-3.58-5.7-5.93-12.77-7.63-19.02-1.72-4.69-5.28.44-7.14,2.26-12,12.13-15.06,16.99-14.37,34.28.17,12.71-1.06,27.04,5.38,37.95Z"/>
      <path class="cls-3" d="M341.24,364.21c-16.42-7.5-35.76-9.57-50.89-20.12-2.91-1.59-3.56.65-3.59,3.01,0,6.41-.33,14.56.22,21.3.54,13.8,10.6,24.19,24.73,24.53l.25.02c13.22.19,37.3-.01,47.16.06,1.7-.12,4.09.5,5.05-1.19,1.15-2.71-1.5-6.74-2.87-9.45-4.43-8.46-11.76-14.29-20.08-18.15Z"/>
      <path class="cls-3" d="M344.38,292.8c1.37,1.21,2.7,2.46,3.98,3.77,2.71,2.64,5.16,6.44,7.49,6.57h.2c2.68-.2,4.37-3.39,6.15-5.48,1.81-2.33,3.65-4.56,5.62-6.74,12.07-13.73,33.33-28.11,26.95-48.94-2.89-7.37-6.67-9.93-12.34-16.27-5.17-5.49-11.27-12.03-16.21-17.27-4.85-6.12-7.95-4.34-12.31.7-5.64,6-13.07,13.94-19.3,20.56-4.67,5.39-10.23,9.39-12.82,16.81-3.32,10.86,1.13,23.22,7.58,31.86,4.13,5.63,9.79,9.87,15.01,14.43Z"/>
      <path class="cls-3" d="M391.9,340.31c15.35-4.67,40.43-4.25,41.18-25.1.07-16.29,2.39-34.76-8.34-48.44-2.68-3.64-5.94-7.16-8.98-10.49-4.35-4.85-7.03-8.22-9.46-.33-6.11,17.97-21.62,28.93-33.19,43.41-7.33,8.81-10.65,17.24-8.26,29.03.67,4.57,1.31,9.07,1.78,13.55.56,3.53.24,7.46,2.23,8.76l.14.06c2.81.47,5.58-3.01,8.23-4.23,4.47-2.7,9.59-4.74,14.67-6.22Z"/>
      <path class="cls-3" d="M433,345.3c-.08-6.36.72-9.89-6.69-5.84-15.93,7.26-36.55,4.63-49.27,17.9-6.12,6.22-6.03,14.33-3.83,22.69,1.51,6.35,4.54,12.7,11.62,12.62l.27.02c5.83.19,17.04.09,22.85.04,5.02-.06,10.78-.89,15.1-3.93,13.94-9.49,9.02-29.22,9.96-43.51Z"/>
    </g>
  </g>
</svg>