<?xml version="1.0" encoding="UTF-8"?>
<svg id="Layer_1" data-name="Layer 1" xmlns="http://www.w3.org/2000/svg" viewBox="0 0 720 720">
  <defs>
    <style>
      .cls-1 {
        fill: #031313;
      }

      .cls-2 {
        fill: #3c6;
      }
    </style>
  </defs>
  <rect class="cls-1" y="0" width="720" height="720"/>
  <g>
    <path class="cls-2" d="M246.45,415.76c16.49,25.35,50.67,27.71,76.62,37.92,8.54,3.05,16.56,6.98,24.08,11.5,2.11,1.08,4.8,3.08,7,2.06l.19-.13c2.74-2.5-.34-15.86-.59-21.97-2.55-24.74-5.33-51.16-20.02-72.1-13.97-19.88-34.97-29.39-47.18-50.93-6.04-9.62-10.02-21.55-12.88-32.11-2.9-7.92-8.91.75-12.05,3.82-20.26,20.48-25.42,28.68-24.25,57.87.28,21.45-1.79,45.65,9.08,64.07Z"/>
    <path class="cls-2" d="M328.33,470.43c-27.72-12.65-60.37-16.15-85.9-33.96-4.92-2.69-6.01,1.1-6.06,5.08,0,10.81-.56,24.58.37,35.95.9,23.29,17.89,40.84,41.75,41.41l.43.03c22.32.32,62.96-.02,79.61.09,2.87-.21,6.91.84,8.53-2.01,1.94-4.57-2.54-11.39-4.84-15.95-7.47-14.28-19.85-24.11-33.89-30.64Z"/>
    <path class="cls-2" d="M333.64,349.89c2.31,2.04,4.56,4.16,6.72,6.37,4.57,4.45,8.71,10.87,12.64,11.08h.33c4.53-.33,7.38-5.73,10.39-9.25,3.06-3.94,6.15-7.7,9.49-11.38,20.38-23.18,56.26-47.45,45.49-82.62-4.88-12.44-11.27-16.76-20.83-27.46-8.73-9.28-19.02-20.31-27.37-29.15-8.18-10.32-13.42-7.33-20.77,1.19-9.52,10.13-22.07,23.53-32.57,34.7-7.88,9.1-17.27,15.85-21.64,28.37-5.61,18.33,1.9,39.19,12.79,53.79,6.98,9.5,16.53,16.66,25.33,24.36Z"/>
    <path class="cls-2" d="M413.85,430.08c25.91-7.88,68.24-7.17,69.51-42.37.12-27.51,4.04-58.68-14.08-81.76-4.52-6.14-10.03-12.09-15.15-17.7-7.34-8.18-11.87-13.87-15.97-.56-10.32,30.33-36.5,48.84-56.02,73.28-12.38,14.88-17.98,29.1-13.95,49,1.14,7.71,2.21,15.31,3,22.88.94,5.96.4,12.58,3.76,14.78l.24.11c4.74.8,9.41-5.08,13.89-7.15,7.55-4.56,16.19-8,24.77-10.5Z"/>
    <path class="cls-2" d="M483.23,438.52c-.13-10.73,1.21-16.69-11.29-9.85-26.88,12.25-61.69,7.81-83.18,30.22-10.33,10.5-10.18,24.19-6.47,38.3,2.55,10.72,7.67,21.44,19.62,21.3l.45.03c9.84.32,28.77.16,38.57.07,8.48-.1,18.19-1.51,25.49-6.63,23.53-16.02,15.22-49.33,16.81-73.45Z"/>
  </g>
</svg>